# xmcd CD database file
#
# Track frame offsets:
#	182
#	21510
#	42012
#	63250
#	85110
#	102852
#	124607
#	141282
#	157115
#	185592
#
# Disc length: 2762 seconds
#
# Revision: 0
# Processed by: cddbd v1.5.1PL0 Copyright (c) Steve Scherf et al.
# Submitted via: CDex 1.51
#
DISCID=830ac80a
DTITLE=INA.SECTION - We're  OPEN
DYEAR=1900
DGENRE=JPop
TTITLE0=たまらなく好きさ
TTITLE1=MY DARLIN'
TTITLE2=CAN'T STOP
TTITLE3=RUN&RUN
TTITLE4=WE'RE IN LOVE
TTITLE5=GET YOUR GUN
TTITLE6=Pure Diamond
TTITLE7=MR.グッドレイダー
TTITLE8=タイニー・ブルー
TTITLE9=RIDE THE WIND
EXTD=
EXTT0=
EXTT1=
EXTT2=
EXTT3=
EXTT4=
EXTT5=
EXTT6=
EXTT7=
EXTT8=
EXTT9=
PLAYORDER=
